<svg xmlns="http://www.w3.org/2000/svg" id="Layer_1" data-name="Layer 1" viewBox="0 0 1200 686.76"><defs><style> .cls-1 { fill: #f3ebd6; } </style></defs><path class="cls-1" d="M2.98,352.75H116.71c1.6,0,2.91-1.3,2.91-2.91v-24.07c0-1.61-1.3-2.91-2.91-2.91H34.05c-1.6,0-2.91-1.3-2.91-2.91V177.86c0-1.61,1.3-2.91,2.91-2.91H101.38c1.6,0,2.91-1.3,2.91-2.91v-24.07c0-1.61-1.3-2.91-2.91-2.91H34.05c-1.6,0-2.91-1.3-2.91-2.91v-30.71c0-1.61,1.3-2.91,2.91-2.91H116.71c1.6,0,2.91-1.3,2.91-2.91v-24.07c0-1.61-1.3-2.91-2.91-2.91H2.98c-1.6,0-2.91,1.3-2.91,2.91V349.84c0,1.6,1.3,2.91,2.91,2.91Z"></path><path class="cls-1" d="M280.65,330.72c6.42-7.08,11.47-15.2,15.14-24.38,3.67-9.17,5.5-18.61,5.5-28.31,0-12.84-2.23-23.99-6.68-33.43-4.46-9.44-10.36-17.82-17.7-25.17-7.34-7.34-15.67-14.02-24.97-20.06-9.31-6.03-18.81-11.93-28.51-17.7-4.46-2.62-8.72-5.44-12.78-8.46-4.07-3.01-7.61-6.29-10.62-9.83-3.02-3.54-5.44-7.53-7.28-11.99-1.84-4.45-2.75-9.7-2.75-15.73,0-7.6,2.88-14.02,8.65-19.27,5.76-5.24,12.84-7.86,21.24-7.86s15.07,2.62,20.06,7.86c4.38,4.62,6.84,10.16,7.37,16.6,.12,1.5,1.37,2.67,2.88,2.67h25.31c1.67,0,2.99-1.4,2.91-3.07-.33-7.21-1.81-13.93-4.45-20.13-3.02-7.08-7.21-13.24-12.58-18.48-5.38-5.24-11.6-9.3-18.68-12.19-7.08-2.88-14.69-4.33-22.81-4.33s-15.87,1.44-23.2,4.33c-7.34,2.89-13.83,6.95-19.47,12.19-5.64,5.25-10.1,11.4-13.37,18.48-3.28,7.08-4.92,14.81-4.92,23.2,0,14.42,2.75,26.29,8.26,35.59,5.51,9.31,12.39,17.24,20.65,23.79,8.26,6.56,17.17,12.39,26.74,17.5,9.57,5.11,18.48,10.56,26.74,16.32,8.26,5.77,15.14,12.45,20.64,20.06,5.51,7.61,8.26,17.3,8.26,29.1,0,5.51-1.05,10.88-3.15,16.12-2.1,5.25-4.98,10.03-8.65,14.35-3.67,4.33-7.93,7.8-12.78,10.42-4.85,2.62-10.16,3.93-15.93,3.93-4.98,0-9.83-.92-14.55-2.75-4.72-1.83-8.98-4.39-12.78-7.67-3.8-3.28-6.82-7.14-9.04-11.6-1.83-3.65-2.91-7.49-3.23-11.5-.12-1.5-1.37-2.66-2.88-2.66h-25.31c-1.67,0-2.99,1.4-2.91,3.06,.38,8.28,2.32,16.05,5.83,23.29,3.93,8.13,9.17,15.27,15.73,21.43,6.55,6.16,14.09,10.95,22.61,14.35,8.52,3.41,17.36,5.11,26.54,5.11,10.22,0,19.66-2.09,28.31-6.29,8.65-4.19,16.18-9.83,22.61-16.91Z"></path><path class="cls-1" d="M484.55,291.4c5.24-12.58,7.87-26.35,7.87-41.29,0-20.18-4.52-38.01-13.57-53.48-8.46-14.46-19.72-25.82-33.79-34.1-1.51-.89-1.84-2.92-.75-4.29,6.9-8.61,10.35-18.62,10.35-30.03,0-7.08-1.32-13.63-3.93-19.66-2.62-6.03-6.23-11.27-10.81-15.73-4.59-4.45-9.97-7.93-16.12-10.42-6.16-2.49-12.78-3.74-19.86-3.74h-60.41c-1.6,0-2.91,1.3-2.91,2.91V349.84c0,1.6,1.3,2.91,2.91,2.91h45.07c14.94,0,28.71-2.56,41.29-7.67,12.58-5.11,23.53-12.19,32.84-21.24,9.3-9.04,16.58-19.86,21.82-32.44Zm-112.86-179.95c0-1.61,1.3-2.91,2.91-2.91h29.34c5.24,0,9.83,1.91,13.76,5.7,3.93,3.8,5.9,8.45,5.9,13.96s-1.91,9.77-5.7,13.57c-3.8,3.8-8.45,5.7-13.96,5.7h-29.34c-1.6,0-2.91-1.3-2.91-2.91v-33.12Zm83.17,171.3c-4.33,9.18-9.97,16.71-16.91,22.61-6.95,5.9-14.75,10.29-23.4,13.17-8.65,2.89-17.3,4.33-25.95,4.33h-14c-1.6,0-2.91-1.3-2.91-2.91V180.27c0-1.61,1.3-2.91,2.91-2.91h14c8.65,0,17.36,1.44,26.15,4.33,8.78,2.89,16.58,7.34,23.4,13.37,6.81,6.03,12.39,13.57,16.71,22.61,4.33,9.04,6.49,19.86,6.49,32.44s-2.16,23.47-6.49,32.64Z"></path><path class="cls-1" d="M625.57,78.65h-68.51c-1.6,0-2.91,1.3-2.91,2.91v24.07c0,1.6,1.3,2.91,2.91,2.91h37.45c1.6,0,2.91,1.3,2.91,2.91v162.26c0,14.94-3.48,26.88-10.42,35.78-6.95,8.92-16.06,13.37-27.33,13.37h-28.95c-1.6,0-2.91,1.3-2.91,2.91v24.07c0,1.6,1.3,2.91,2.91,2.91h28.95c11.27,0,21.17-2.16,29.69-6.49,8.52-4.33,15.66-10.03,21.43-17.11,5.76-7.08,10.16-15.34,13.17-24.77,3.01-9.44,4.52-19.27,4.52-29.49V81.56c0-1.61-1.3-2.91-2.91-2.91Z"></path><path class="cls-1" d="M790.34,78.65h-113.74c-1.6,0-2.91,1.3-2.91,2.91V349.84c0,1.6,1.3,2.91,2.91,2.91h113.74c1.6,0,2.91-1.3,2.91-2.91v-24.07c0-1.61-1.3-2.91-2.91-2.91h-82.67c-1.6,0-2.91-1.3-2.91-2.91v-33.12c0-1.61,1.3-2.91,2.91-2.91h67.33c1.6,0,2.91-1.3,2.91-2.91v-24.07c0-1.61-1.3-2.91-2.91-2.91h-67.33c-1.6,0-2.91-1.3-2.91-2.91V111.45c0-1.61,1.3-2.91,2.91-2.91h82.67c1.6,0,2.91-1.3,2.91-2.91v-24.07c0-1.61-1.3-2.91-2.91-2.91Z"></path><path class="cls-1" d="M937.38,271.84c15.66-8.08,28.24-19.65,37.74-34.71,10.09-15.99,15.14-34.61,15.14-55.84,0-14.94-2.62-28.71-7.86-41.29-5.25-12.58-12.52-23.4-21.83-32.44-9.31-9.04-20.25-16.12-32.84-21.24-12.59-5.11-26.35-7.67-41.29-7.67h-45.07c-1.6,0-2.91,1.3-2.91,2.91V349.84c0,1.6,1.3,2.91,2.91,2.91h25.25c1.6,0,2.91-1.3,2.91-2.91v-63.01c0-1.61,1.3-2.91,2.91-2.91h15.58c5.66,0,11.2-.42,16.65-1.27,1.12-.17,2.24,.3,2.87,1.24l45.29,67.56c.54,.8,1.44,1.29,2.41,1.29h29.43c2.35,0,3.73-2.65,2.38-4.58l-50.68-72.09c-1-1.43-.54-3.43,1.01-4.23Zm-24.78-22.13c-8.79,2.89-17.5,4.33-26.15,4.33h-14c-1.6,0-2.91-1.3-2.91-2.91V111.45c0-1.61,1.3-2.91,2.91-2.91h14c8.65,0,17.3,1.44,25.95,4.33,8.65,2.89,16.45,7.34,23.4,13.37,6.94,6.03,12.58,13.57,16.91,22.61,4.33,9.04,6.49,19.86,6.49,32.44s-2.16,23.4-6.49,32.44c-4.33,9.04-9.9,16.58-16.71,22.61-6.82,6.03-14.62,10.49-23.4,13.37Z"></path><path class="cls-1" d="M1197.48,76.85c-4.37-.55-26.08,.47-30.25,.62-19.66,.7-37.1,3.61-53.88,10.81-16.78,7.21-31.46,17.11-44.04,29.69-12.58,12.58-22.48,27.27-29.69,44.04-7.21,16.78-10.81,34.74-10.81,53.87s3.6,37.03,10.81,53.68c7.21,16.65,17.11,31.13,29.69,43.45,12.59,12.33,27.26,22.02,44.04,29.1,16.77,7.08,34.73,10.62,53.88,10.62h28.16c1.6,0,2.91-1.3,2.91-2.91V218.34c0-1.61-1.3-2.91-2.91-2.91h-56.32c-1.6,0-2.91,1.3-2.91,2.91v24.07c0,1.6,1.3,2.91,2.91,2.91h25.25c1.6,0,2.91,1.3,2.91,2.91v71.68c0,1.62-1.33,2.95-2.95,2.91-13.84-.35-26.81-3.15-38.93-8.42-12.98-5.63-24.32-13.3-34.02-23.01-9.7-9.7-17.37-21.04-23-34.02-5.64-12.98-8.46-26.8-8.46-41.49s2.82-28.9,8.46-41.88c5.63-12.98,13.3-24.31,23-34.02,9.7-9.7,21.04-17.36,34.02-23,12.98-5.63,26.58-6.86,41.88-8.46,3.93-.41,25.43-1.2,29.56-.71,1.71,.21,3.21-1.16,3.21-2.89v-25.2c0-1.45-1.08-2.7-2.52-2.89Z"></path><path class="cls-1" d="M387.09,413.47h-28.79c-1.6,0-2.91,1.3-2.91,2.91v181.04c0,16.64-3.87,29.93-11.61,39.86-7.74,9.93-17.89,14.89-30.44,14.89s-22.27-4.96-30-14.89c-7.74-9.92-11.61-23.21-11.61-39.86v-181.04c0-1.61-1.3-2.91-2.91-2.91h-28.79c-1.6,0-2.91,1.3-2.91,2.91v182.36c0,11.39,1.68,22.41,5.04,33.07,3.35,10.66,8.25,20,14.67,28.03,6.42,8.03,14.38,14.53,23.87,19.49,9.49,4.97,20.37,7.45,32.63,7.45s23.58-2.48,33.07-7.45c9.49-4.96,17.44-11.46,23.87-19.49,6.42-8.03,11.31-17.37,14.67-28.03,3.35-10.65,5.04-21.68,5.04-33.07v-182.36c0-1.61-1.3-2.91-2.91-2.91Z"></path><path class="cls-1" d="M558.83,551.65c-8.62-8.03-17.96-15.33-28.03-21.9-10.07-6.57-19.42-12.77-28.03-18.61-8.62-5.84-15.77-11.53-21.46-17.08-5.69-5.54-8.54-11.39-8.54-17.52,0-8.47,3.21-15.55,9.63-21.24,6.42-5.69,14.3-8.54,23.65-8.54s16.79,2.85,22.34,8.54c4.94,5.08,7.69,11.26,8.22,18.54,.11,1.52,1.36,2.7,2.89,2.7h28.84c1.67,0,2.97-1.4,2.91-3.07-.33-8.17-1.99-15.76-4.98-22.77-3.36-7.88-8.03-14.67-14.01-20.37-5.99-5.69-12.92-10.14-20.8-13.36-7.88-3.21-16.36-4.82-25.4-4.82s-17.67,1.61-25.84,4.82c-8.18,3.22-15.4,7.66-21.68,13.36-6.28,5.69-11.24,12.48-14.89,20.37-3.65,7.88-5.47,16.5-5.47,25.84,0,10.22,2.85,19.27,8.54,27.15,5.69,7.88,12.85,15.26,21.46,22.12,8.61,6.86,17.96,13.43,28.03,19.71,10.07,6.28,19.41,12.7,28.03,19.27,8.61,6.57,15.77,13.65,21.46,21.24,5.69,7.6,8.54,16.21,8.54,25.84,0,5.55-1.09,10.81-3.28,15.77-2.19,4.97-5.11,9.27-8.76,12.92-3.65,3.66-7.96,6.5-12.92,8.54-4.97,2.05-10.22,3.07-15.77,3.07s-10.81-1.02-15.77-3.07c-4.97-2.04-9.27-4.89-12.92-8.54-3.65-3.65-6.57-7.95-8.76-12.92-1.83-4.15-2.9-8.51-3.2-13.08-.1-1.52-1.37-2.69-2.89-2.69h-28.83c-1.66,0-2.97,1.39-2.91,3.05,.35,9.11,2.31,17.8,5.85,26.08,3.94,9.2,9.34,17.16,16.2,23.87,6.86,6.72,14.82,12.04,23.87,15.99,9.05,3.94,18.83,5.91,29.34,5.91s20.29-1.97,29.34-5.91c9.05-3.94,17.01-9.27,23.87-15.99,6.86-6.71,12.26-14.67,16.21-23.87,3.94-9.2,5.91-18.9,5.91-29.12,0-12.55-2.85-23.72-8.54-33.51-5.69-9.78-12.85-18.68-21.46-26.72Z"></path><path class="cls-1" d="M758.92,413.47h-121.2c-1.6,0-2.91,1.3-2.91,2.91v266.17c0,1.6,1.3,2.91,2.91,2.91h121.2c1.6,0,2.91-1.3,2.91-2.91v-27.47c0-1.61-1.3-2.91-2.91-2.91h-86.6c-1.6,0-2.91-1.3-2.91-2.91v-37.55c0-1.61,1.3-2.91,2.91-2.91h69.08c1.6,0,2.91-1.3,2.91-2.91v-27.47c0-1.61-1.3-2.91-2.91-2.91h-69.08c-1.6,0-2.91-1.3-2.91-2.91v-122.95c0-1.61,1.3-2.91,2.91-2.91h86.6c1.6,0,2.91-1.3,2.91-2.91v-27.47c0-1.61-1.3-2.91-2.91-2.91Z"></path><path class="cls-1" d="M829.85,590.08c6.42,8.03,14.38,14.53,23.87,19.49,9.48,4.97,20.37,7.45,32.63,7.45s23.58-2.48,33.07-7.45c9.48-4.96,17.44-11.46,23.87-19.49,6.42-8.03,11.31-17.37,14.67-28.03,3.35-10.65,5.04-21.68,5.04-33.07v-114.06c0-1.61-1.3-2.91-2.91-2.91h-28.79c-1.6,0-2.91,1.3-2.91,2.91v112.75c0,16.64-3.87,29.93-11.61,39.86-7.74,9.93-17.89,14.89-30.44,14.89s-22.27-4.96-30-14.89c-7.74-9.92-11.61-23.21-11.61-39.86v-112.75c0-1.61-1.3-2.91-2.91-2.91h-28.79c-1.6,0-2.91,1.3-2.91,2.91v114.06c0,11.39,1.68,22.41,5.04,33.07,3.35,10.66,8.25,20,14.67,28.03Z"></path><path class="cls-1" d="M1196.01,413.47h-29.62c-1.24,0-2.35,.79-2.75,1.96l-56.35,164.42c-.55,1.59-2.79,1.59-3.34,0l-56.77-164.43c-.4-1.17-1.51-1.96-2.75-1.96h-29.62c-1.6,0-2.91,1.3-2.91,2.91v266.17c0,1.6,1.3,2.91,2.91,2.91h28.79c1.6,0,2.91-1.3,2.91-2.91v-157.83c0-1.99,2.78-2.46,3.43-.58l52.94,153.33c.9,2.61,4.6,2.61,5.5,0l52.52-153.24c.65-1.88,3.43-1.42,3.43,.57v157.76c0,1.6,1.3,2.91,2.91,2.91h28.79c1.6,0,2.91-1.3,2.91-2.91V416.37c0-1.61-1.3-2.91-2.91-2.91Z"></path><path class="cls-1" d="M184.11,412.81h-29.62c-1.24,0-2.35,.79-2.75,1.96l-56.35,164.42c-.55,1.59-2.79,1.59-3.34,0l-56.77-164.43c-.4-1.17-1.51-1.96-2.75-1.96H2.91c-1.61,0-2.91,1.3-2.91,2.91v266.17c0,1.6,1.3,2.91,2.91,2.91H31.69c1.6,0,2.91-1.3,2.91-2.91v-157.83c0-1.99,2.78-2.46,3.43-.58l52.94,153.33c.9,2.61,4.6,2.61,5.5,0l52.52-153.24c.65-1.88,3.43-1.42,3.43,.57v157.76c0,1.6,1.3,2.91,2.91,2.91h28.79c1.6,0,2.91-1.3,2.91-2.91V415.72c0-1.6-1.3-2.91-2.91-2.91Z"></path><path class="cls-1" d="M960.77,651.1l-147.35-.4c-1.6,0-2.91,1.3-2.91,2.91v27.87c0,1.6,1.3,2.91,2.91,2.91h147.35c1.6,0,2.91-1.3,2.91-2.91v-27.47c0-1.61-1.3-2.91-2.91-2.91Z"></path></svg>